# xmcd
#
# Track frame offsets:
#	150
#	13468
#	34213
#
# Disc length: 676 seconds
#
# Revision: 5
# Processed by: cddbd v1.5.2PL0 Copyright (c) Steve Scherf et al.
# Submitted via: EZCDAudioConverter 1.0.0.1
#
DISCID=2202a203
DTITLE=Runar Eff - It's Gonna Get Better
DYEAR=2016
DGENRE=Country
TTITLE0=It's Gonna Get Better
TTITLE1=The Day I Die
TTITLE2=A Living Hell
EXTD=
EXTT0=
EXTT1=
EXTT2=
PLAYORDER=
